<svg xmlns="http://www.w3.org/2000/svg" width="21.499" height="21.49" viewBox="0 0 21.499 21.49">
  <g id="check" transform="translate(0.509 0.509)">
    <g id="Group_47" data-name="Group 47" transform="translate(0 0)">
      <path id="Path_775" data-name="Path 775" d="M21.009,10.62,19.747,8.433V5.908a.408.408,0,0,0-.2-.354L17.356,4.292,16.094,2.105a.408.408,0,0,0-.354-.2H13.215L11.028.638a.407.407,0,0,0-.408,0L8.433,1.9H5.908a.408.408,0,0,0-.354.2L4.292,4.292,2.105,5.554a.408.408,0,0,0-.2.354V8.433L.638,10.62a.409.409,0,0,0,0,.408L1.9,13.214V15.74a.407.407,0,0,0,.2.354l2.187,1.263,1.262,2.186a.408.408,0,0,0,.354.2H8.433l2.187,1.263a.408.408,0,0,0,.408,0l2.187-1.263H15.74a.408.408,0,0,0,.354-.2l1.263-2.186,2.186-1.263a.408.408,0,0,0,.2-.354V13.214l1.263-2.187a.407.407,0,0,0,0-.408ZM14.061,6.893l-3.266,8.165a.409.409,0,0,1-.258.238.425.425,0,0,1-.121.018.411.411,0,0,1-.227-.069l-2.45-1.633a.408.408,0,0,1,.453-.679l2.031,1.354,3.079-7.7a.408.408,0,1,1,.758.3Z" transform="translate(-0.584 -0.583)" fill="none" stroke="#f93" stroke-width="1" fill-rule="evenodd"/>
    </g>
  </g>
</svg>
