<svg xmlns="http://www.w3.org/2000/svg" width="133.781" height="111.984" viewBox="0 0 133.781 111.984">
  <g id="group-rkP1DGAWN" transform="translate(1.5 1.5)" opacity="0.18">
    <g id="Group_41" data-name="Group 41" transform="translate(0 0)">
      <path id="Path_769" data-name="Path 769" d="M45.151.149c-10.318,0-18.683,9.759-18.683,21.8s8.365,21.8,18.683,21.8,18.683-9.759,18.683-21.8S55.469.149,45.151.149ZM99.642,14.161c-6.879,0-12.455,6.971-12.455,15.569S92.763,45.3,99.642,45.3,112.1,38.329,112.1,29.73,106.521,14.161,99.642,14.161ZM45.151,56.2C20.137,56.2,0,66.518,0,79.552v29.582H90.3V79.552C90.3,66.518,70.164,56.2,45.151,56.2Zm54.492,1.557a51.1,51.1,0,0,0-15.277,2.287c7.1,4.77,12.163,11.388,12.163,19.51V95.121h34.252V74.881C130.781,65.681,116.893,57.755,99.642,57.755Z" transform="translate(0 -0.149)" fill="none" stroke="#78909c" stroke-width="3" fill-rule="evenodd"/>
    </g>
  </g>
</svg>
