<svg xmlns="http://www.w3.org/2000/svg" width="45.513" height="24.569" viewBox="0 0 45.513 24.569">
  <g id="filter" transform="translate(-895.487 -275.5)">
    <g id="interface-SkjYgN0bE" transform="translate(874.364 256.91)">
      <g id="Group_73" data-name="Group 73" transform="translate(21.636 19.09)">
        <path id="Path_783" data-name="Path 783" d="M19.755.277A.47.47,0,0,0,19.326,0H.471A.472.472,0,0,0,.116.782L6.6,8.191V23.1a.471.471,0,0,0,.272.427.465.465,0,0,0,.2.045.473.473,0,0,0,.3-.109l5.656-4.714a.473.473,0,0,0,.17-.362V8.191L19.681.782a.471.471,0,0,0,.074-.505Z" transform="translate(0)" fill="none" stroke="#78909c" stroke-width="1" fill-rule="evenodd"/>
      </g>
    </g>
    <g id="Rectangle_97" data-name="Rectangle 97" transform="translate(924 279)" fill="#fff" stroke="#78909c" stroke-width="0.5">
      <rect width="17" height="3" stroke="none"/>
      <rect x="0.25" y="0.25" width="16.5" height="2.5" fill="none"/>
    </g>
    <g id="Rectangle_98" data-name="Rectangle 98" transform="translate(924 286)" fill="#fff" stroke="#78909c" stroke-width="0.5">
      <rect width="8" height="3" stroke="none"/>
      <rect x="0.25" y="0.25" width="7.5" height="2.5" fill="none"/>
    </g>
    <g id="Rectangle_99" data-name="Rectangle 99" transform="translate(932 293)" fill="#fff" stroke="#78909c" stroke-width="0.5">
      <rect width="9" height="3" stroke="none"/>
      <rect x="0.25" y="0.25" width="8.5" height="2.5" fill="none"/>
    </g>
    <g id="Ellipse_63" data-name="Ellipse 63" transform="translate(918 278)" fill="#fff" stroke="#78909c" stroke-width="0.5">
      <circle cx="2" cy="2" r="2" stroke="none"/>
      <circle cx="2" cy="2" r="1.75" fill="none"/>
    </g>
    <g id="Ellipse_64" data-name="Ellipse 64" transform="translate(918 285)" fill="#fff" stroke="#78909c" stroke-width="0.5">
      <circle cx="2" cy="2" r="2" stroke="none"/>
      <circle cx="2" cy="2" r="1.75" fill="none"/>
    </g>
    <g id="Ellipse_65" data-name="Ellipse 65" transform="translate(918 292)" fill="#fff" stroke="#78909c" stroke-width="0.5">
      <circle cx="2" cy="2" r="2" stroke="none"/>
      <circle cx="2" cy="2" r="1.75" fill="none"/>
    </g>
  </g>
</svg>
