<svg xmlns="http://www.w3.org/2000/svg" xmlns:xlink="http://www.w3.org/1999/xlink" width="116" height="116" viewBox="0 0 116 116">
  <defs>
    <filter id="Ellipse_60" x="0" y="0" width="116" height="116" filterUnits="userSpaceOnUse">
      <feOffset dy="8" input="SourceAlpha"/>
      <feGaussianBlur stdDeviation="11" result="blur"/>
      <feFlood flood-opacity="0.161"/>
      <feComposite operator="in" in2="blur"/>
      <feComposite in="SourceGraphic"/>
    </filter>
  </defs>
  <g id="search-btn" transform="translate(-1672 -241)">
    <g transform="matrix(1, 0, 0, 1, 1672, 241)" filter="url(#Ellipse_60)">
      <circle id="Ellipse_60-2" data-name="Ellipse 60" cx="25" cy="25" r="25" transform="translate(33 25)" fill="#fff"/>
    </g>
    <g id="search-HJiJK70ZN" transform="translate(1695.067 256.067)">
      <g id="Group_58" data-name="Group 58">
        <path id="Path_776" data-name="Path 776" d="M18.594,16.362H17.4l-.446-.446a9.311,9.311,0,0,0,2.38-6.248,9.669,9.669,0,1,0-9.669,9.669,9.311,9.311,0,0,0,6.248-2.38l.446.446v1.19L23.8,26.031,26.031,23.8l-7.437-7.437Zm-8.925,0a6.694,6.694,0,1,1,6.694-6.694,6.666,6.666,0,0,1-6.694,6.694Z" transform="translate(21.933 21.933)" fill="none" stroke="#a1616a" stroke-width="1" fill-rule="evenodd"/>
      </g>
    </g>
  </g>
</svg>
