<svg xmlns="http://www.w3.org/2000/svg" xmlns:xlink="http://www.w3.org/1999/xlink" width="152.673" height="152.557" viewBox="0 0 152.673 152.557">
  <defs>
    <filter id="Path_767" x="0" y="0" width="152.673" height="152.557" filterUnits="userSpaceOnUse">
      <feOffset dy="22" input="SourceAlpha"/>
      <feGaussianBlur stdDeviation="22" result="blur"/>
      <feFlood flood-opacity="0.161"/>
      <feComposite operator="in" in2="blur"/>
      <feComposite in="SourceGraphic"/>
    </filter>
  </defs>
  <g id="Group_39" data-name="Group 39" transform="translate(66.67 44.553)">
    <g transform="matrix(1, 0, 0, 1, -66.67, -44.55)" filter="url(#Path_767)">
      <path id="Path_767-2" data-name="Path 767" d="M14.3,11.588l-2.03-2.03,4.651-4.651h.925a.382.382,0,0,0,.271-.112L19.74,3.169a.383.383,0,0,0,0-.542L17.572.46a.383.383,0,0,0-.542,0L15.4,2.085a.383.383,0,0,0-.112.271v.925L10.642,7.932,8.613,5.9A4.212,4.212,0,0,0,3.468.547a.383.383,0,0,0-.168.64L4.738,2.625,4.292,4.291l-1.667.447L1.188,3.3a.383.383,0,0,0-.639.168A4.211,4.211,0,0,0,5.9,8.612l2.029,2.03-.5.5a2.292,2.292,0,0,0-2.615.448L1.021,15.385a2.3,2.3,0,0,0,0,3.251l.542.542a2.3,2.3,0,0,0,3.251,0l3.793-3.793a2.292,2.292,0,0,0,.448-2.614l.5-.5,2.03,2.03a4.214,4.214,0,0,0,5.145,5.355.383.383,0,0,0,.168-.64l-1.438-1.438.446-1.666,1.666-.446L19.012,16.9a.383.383,0,0,0,.64-.168A4.212,4.212,0,0,0,14.3,11.588ZM2.106,17.394a.383.383,0,0,1-.271-.654l4.334-4.335a.383.383,0,1,1,.542.542L2.377,17.282a.382.382,0,0,1-.271.112ZM7.794,14.03,3.46,18.365a.383.383,0,1,1-.542-.542l4.334-4.335a.383.383,0,0,1,.542.542Z" transform="translate(66.32 44.21)" fill="none" stroke="#f93" stroke-width="1" fill-rule="evenodd"/>
    </g>
  </g>
</svg>
