<svg xmlns="http://www.w3.org/2000/svg" width="70" height="70" viewBox="0 0 70 70" style="width: 100%; height: 100%;"><desc>Made with illustrio</desc>
  
<g class="base"><g fill="none" fill-rule="evenodd" stroke="none" class="main-stroke">
    
    <path fill="none" d="M23.5161818,19.0170909 L20.1447273,15.6456364 L27.8701818,7.92081818 L29.4063636,7.92081818 C29.5756364,7.92081818 29.7372727,7.854 29.8562727,7.73436364 L32.5563636,5.03427273 C32.676,4.91463636 32.7428182,4.753 32.7428182,4.58436364 C32.7428182,4.41572727 32.676,4.25345455 32.5563636,4.13445455 L28.9564545,0.534545455 C28.7076364,0.285727273 28.3054545,0.285727273 28.0566364,0.534545455 L25.3565455,3.234 C25.2369091,3.35363636 25.1700909,3.51527273 25.1700909,3.68390909 L25.1700909,5.22009091 L17.4452727,12.9455455 C16.597,12.0966364 14.7763636,10.276 14.0744545,9.57409091 C14.882,7.08209091 14.2335455,4.333 12.3664545,2.46718182 C10.5846364,0.684727273 7.96472727,-0.000636363636 5.52936364,0.678363636 C5.31172727,0.739454545 5.14245455,0.911272727 5.08518182,1.12954545 C5.02790909,1.34781818 5.09090909,1.58136364 5.25063636,1.74172727 L7.63890909,4.13 L6.89754545,6.89690909 L4.12936364,7.63890909 L1.74172727,5.25127273 C1.582,5.09090909 1.34909091,5.02790909 1.13081818,5.08581818 C0.911909091,5.14309091 0.740090909,5.31236364 0.679636364,5.53063636 C3.71924713e-15,7.96472727 0.685363636,10.584 2.46718182,12.3670909 C4.33363636,14.2335455 7.08272727,14.8813636 9.57409091,14.0744545 L12.9449091,17.4459091 L12.1093636,18.2814545 C11.6021818,18.039 11.0447273,17.9066364 10.4656364,17.9066364 C9.44554545,17.9066364 8.48718182,18.3037273 7.76618182,19.0253636 L1.46554545,25.3240909 C-0.0222727273,26.8131818 -0.0222727273,29.2351818 1.46554545,30.7242727 L2.366,31.6240909 C3.087,32.3457273 4.046,32.7428182 5.06609091,32.7428182 C6.08618182,32.7428182 7.04454545,32.3457273 7.76554545,31.6240909 L14.0649091,25.3240909 C14.7865455,24.6037273 15.1836364,23.6447273 15.1836364,22.6252727 C15.1836364,22.0461818 15.0512727,21.4887273 14.8088182,20.9815455 L15.6443636,20.146 L19.0158182,23.5174545 C18.2082727,26.0094545 18.8573636,28.7579091 20.7238182,30.6243636 C22.0512727,31.9518182 23.842,32.6709091 25.676,32.6709091 C26.3047273,32.6709091 26.9391818,32.5862727 27.5609091,32.4125455 C27.7791818,32.3514545 27.9478182,32.1802727 28.0050909,31.9613636 C28.063,31.7424545 27.9993636,31.5095455 27.8396364,31.3498182 L25.4513636,28.9615455 L26.1927273,26.194 L28.9602727,25.4526364 L31.3485455,27.8409091 C31.5082727,28.0012727 31.7411818,28.0649091 31.9600909,28.0063636 C32.179,27.9490909 32.3508182,27.7804545 32.4112727,27.5621818 C33.0902727,25.1280909 32.4049091,22.5081818 30.6224545,20.7257273 C28.7566364,18.858 26.0069091,18.2089091 23.5161818,19.0170909 L23.5161818,19.0170909 Z M3.26645455,28.6611818 C3.10354545,28.6611818 2.94063636,28.5988182 2.81654545,28.4747273 C2.56772727,28.2259091 2.56772727,27.8237273 2.81654545,27.5749091 L10.0157273,20.3750909 C10.2645455,20.1262727 10.6667273,20.1262727 10.9155455,20.3750909 C11.1643636,20.6239091 11.1643636,21.0260909 10.9155455,21.2749091 L3.71636364,28.4747273 C3.59227273,28.5988182 3.42936364,28.6611818 3.26645455,28.6611818 L3.26645455,28.6611818 Z M12.7151818,23.0745455 L5.516,30.2743636 C5.39190909,30.3984545 5.229,30.4608182 5.06609091,30.4608182 C4.90318182,30.4608182 4.74027273,30.3984545 4.61618182,30.2743636 C4.36736364,30.0255455 4.36736364,29.6233636 4.61618182,29.3745455 L11.8153636,22.1747273 C12.0641818,21.9259091 12.4663636,21.9259091 12.7151818,22.1747273 C12.964,22.4235455 12.964,22.8257273 12.7151818,23.0745455 L12.7151818,23.0745455 Z" transform="translate(18.455 18.455)" stroke="none" class="main-stroke"></path>
  </g></g><style>
          .main-fill {fill: #0D47A1;}
          .main-stroke {stroke: #0D47A1;}
          .secondary-fill {fill: ;}
          .secondary-stroke {stroke: ;}

          .main-fill--darken {fill: #07285a;}
          .main-stroke--darken {stroke: #07285a;}
          .secondary-fill--darken {fill: #000000;}
          .secondary-stroke--darken {stroke: #000000;}

          .main-fill--darkener {fill: #03132b;}
          .main-stroke--darkener {stroke: #03132b;}
          .secondary-fill--darkener {fill: #000000;}
          .secondary-stroke--darkener {stroke: #000000;}
        </style></svg>