<svg xmlns="http://www.w3.org/2000/svg" width="512.029" height="512.05" viewBox="0 0 512.029 512.05">
  <path id="tools-solid" d="M501.1,395.7,384,278.6a74.25,74.25,0,0,0-85.4-13.9L192,158.1V96L64,0,0,64,96,192h62.1L264.7,298.6c-13.6,27.8-9.2,62.3,13.9,85.4L395.7,501.1a37.179,37.179,0,0,0,52.7,0l52.7-52.7a37.36,37.36,0,0,0,0-52.7ZM331.7,225a105.212,105.212,0,0,1,74.9,31L426,275.4a141.55,141.55,0,0,0,43.8-29.5,143.813,143.813,0,0,0,37.9-136.7,11.97,11.97,0,0,0-20.1-5.5l-74.4,74.4-67.9-11.3L334,98.9l74.4-74.4a12.073,12.073,0,0,0-5.7-20.2A144.052,144.052,0,0,0,266.1,42.2c-28.5,28.5-41.9,66.1-41.2,103.6L307,227.9a108.938,108.938,0,0,1,24.7-2.9ZM227.8,307l-56.7-56.7L18.7,402.8a63.993,63.993,0,0,0,90.5,90.5L232.8,369.7c-7.6-19.9-9.9-41.6-5-62.7ZM64,472a24,24,0,1,1,24-24A24.071,24.071,0,0,1,64,472Z" transform="translate(0.05)" fill="#f93"/>
</svg>
